<?xml version="1.0" encoding="UTF-8"?><svg id="_イヤー_1" xmlns="http://www.w3.org/2000/svg" viewBox="0 0 757.73 193.11"><defs><style>.cls-1{fill:#040000;}</style></defs><g><path class="cls-1" d="M.11,46.55c4.1-2.97,7.88-7.02,10.15-10.53,.81-1.24,1.3-2.32,1.73-3.51,3.67,1.67,5.02,2.48,5.02,3.08s-.54,.81-2.32,.86c-3.89,4.91-7.56,7.88-14.09,10.85-.32,.16-.81-.54-.49-.76ZM40.72,8.42c2.7-2.97,3.08-3.24,3.4-3.24,.38,0,.76,.27,3.35,2.43,1.13,.97,1.4,1.3,1.4,1.62,0,.38-.22,.54-.76,.54H4.7c-1.4,0-2.38,.11-3.89,.32l-.54-2.05c1.73,.27,2.92,.38,4.43,.38H21.98V4.32c0-1.03-.05-1.89-.27-3.83,5.51,.59,6.16,1.03,6.16,1.67,0,.38-.38,.76-1.84,1.4v4.86h14.69Zm-14.47,26.84c0,6.75,.11,8.8,.11,10.1,0,2.05-.7,2.92-2.11,3.67-.92,.49-2.16,.86-3.13,.86-.76,0-.92-.05-1.03-1.08-.22-1.62-1.62-2.43-5.89-3.4-.27-.05-.27-.76,0-.7,3.08,.32,5.4,.43,7.18,.43,.59,0,.81-.27,.81-.86V28.24H12.47v.59c0,1.35-.7,1.94-2.32,1.94-1.24,0-1.78-.49-1.78-1.57s.27-2.81,.27-9.07c0-2.97-.05-4.48-.32-6.64,2,.76,2.81,1.13,4.64,2.21h22.41c1.67-1.73,1.94-1.94,2.27-1.94,.38,0,.7,.22,2.48,1.67,.81,.65,1.08,.97,1.08,1.3,0,.49-.27,.81-1.51,1.51v2.59c0,5.29,.16,7.78,.16,8.53,0,1.08-.81,1.67-2.32,1.67-1.35,0-1.73-.43-1.73-1.67v-1.13h-9.56v7.02Zm9.56-18.2H12.47v9.83h23.33v-9.83Zm3.78,25.65c-1.62-3.24-4.05-6.1-7.67-9.13-.27-.22,.11-.86,.43-.7,7.72,3.19,12.53,7.72,12.53,11.12,0,1.51-.86,2.54-2.05,2.54s-1.57-.38-3.24-3.83Z"/><path class="cls-1" d="M69.61,30.83c-1.84,1.3-3.78,2.48-5.72,3.56-.32,.16-.76-.54-.43-.76,2.11-1.51,4.16-3.19,6.1-4.91-.05-1.4-.05-2.7-.16-4.05,1.3,.54,2.11,.92,3.02,1.4,2.05-1.94,3.94-4,5.72-6.16h-10.1c-1.24,0-2.27,.11-3.56,.32l-.54-2.11c1.46,.32,2.65,.43,4.05,.43h6.21V10.26h-4.54c-1.03,0-1.84,.05-3.13,.32l-.59-2.05c1.46,.27,2.43,.38,3.73,.38h4.54v-2.48c0-2.59-.05-4.21-.27-6.05,5.08,.59,5.67,1.03,5.67,1.57,0,.43-.38,.81-1.73,1.4v5.56h1.73c1.35-1.84,1.73-2.11,2.05-2.11s.65,.27,2.16,1.62c.59,.54,.86,.97,.86,1.3,0,.38-.22,.54-.7,.54h-6.1v8.32h1.35c2.54-3.19,4.75-6.53,6.53-9.99,1.03-2,1.84-4,2.48-5.89,3.29,1.51,4.64,2.27,4.64,2.86,0,.65-.43,.97-1.89,1.03-2.32,4.37-4.97,8.37-7.99,11.99h4c1.94-2.43,2.38-2.7,2.7-2.7s.7,.27,2.65,2.05c.81,.81,1.08,1.19,1.08,1.51s-.16,.49-.7,.49h-10.85c-2.16,2.43-4.48,4.75-6.97,6.86h9.56c1.46-1.67,1.78-1.89,2.11-1.89s.65,.22,2.32,1.51c.81,.65,1.03,.97,1.03,1.3,0,.43-.22,.65-1.35,1.4v4.59c0,8.15,.22,12.37,.22,13.61s-.81,1.67-2.38,1.67c-1.24,0-1.57-.59-1.57-1.46v-1.67h-11.5v2c0,1.24-.76,1.78-2.38,1.78-1.19,0-1.57-.54-1.57-1.57,0-1.19,.22-3.62,.22-11.18v-6.05Zm15.23-2.7h-11.5v7.07h11.5v-7.07Zm-11.5,16.36h11.5v-7.94h-11.5v7.94Zm25-7.99c0,7.99,.11,10.53,.11,11.61,0,1.35-.81,1.84-2.38,1.84-1.19,0-1.57-.54-1.57-1.51,0-5.08,.16-14.8,.16-29.75,0-11.23-.05-14.63-.27-17.06,1.89,.81,2.7,1.19,4.43,2.16h8.37c1.62-1.78,1.94-2,2.27-2,.49,0,.81,.22,2.54,1.94,.92,.97,1.08,1.3,1.08,1.62,0,.43-.27,.76-1.62,1.08-2.97,5.83-4.48,8.59-8.32,13.99,6.05,4.32,9.23,8.53,9.23,14.04,0,2.7-.59,4.37-1.84,5.62-1.13,1.13-2.7,1.67-3.94,1.67-.76,0-.97-.16-1.13-1.19-.27-1.35-1.4-2-4.86-2.92-.32-.11-.32-.81,0-.76,2.48,.27,4.37,.32,5.67,.32,.76,0,1.3-.22,1.62-.59,.49-.54,.65-1.62,.65-3.19,0-4.75-2.48-9.18-6.64-12.8,2.38-5.4,4.1-10.26,5.4-15.5h-8.96v31.37Z"/><path class="cls-1" d="M169.45,9.34c2.7-2.86,3.08-3.13,3.4-3.13,.38,0,.76,.27,3.29,2.32,1.24,.97,1.46,1.35,1.46,1.67s-.16,.49-.7,.49h-43.25c-1.35,0-2.38,.11-3.89,.32l-.54-2.05c1.73,.32,2.92,.38,4.43,.38h16.96V5.18c0-1.4-.05-2.54-.27-4.54,5.56,.54,6.16,.97,6.16,1.57,0,.43-.43,.81-1.78,1.4v5.72h14.74Zm-30.46,11.5v20.36c0,1.08-.65,1.73-2.59,1.73-1.08,0-1.62-.49-1.62-1.57,0-1.94,.16-5.13,.16-13.07,0-6.48-.05-7.99-.27-11.12,2.05,.81,2.97,1.19,4.86,2.32h11.23c0-4.75-.11-6.16-.27-7.67,5.18,.59,5.94,.81,5.94,1.51,0,.49-.38,.81-1.78,1.4v4.75h12.15c1.78-1.89,2.05-2.11,2.38-2.11,.38,0,.7,.22,2.54,1.78,.86,.76,1.03,1.08,1.03,1.4,0,.43-.27,.76-1.4,1.46v4.43c0,8.8,.11,10.15,.11,11.56,0,1.78-.7,2.92-1.73,3.62-.81,.65-2.05,1.03-3.35,1.03-.65,0-.81-.16-.97-.97-.27-1.57-.86-2.27-5.13-3.35-.32-.05-.32-.76,0-.76,3.08,.22,4.75,.32,6.1,.32,.7,0,.97-.27,.97-.97V20.84h-12.69v3.29c0,15.01,.11,21.76,.11,23.87,0,1.4-.7,1.94-2.48,1.94-1.4,0-1.78-.49-1.78-1.73,0-2,.27-8.42,.27-25.22v-2.16h-11.77Z"/><path class="cls-1" d="M233.77,44.55c2.65-3.4,3.02-3.62,3.35-3.62,.38,0,.76,.22,3.4,2.59,1.3,1.19,1.57,1.57,1.57,1.89s-.22,.49-.76,.49h-43.63c-1.46,0-2.54,.11-4.05,.38l-.54-2.11c1.73,.32,2.97,.38,4.48,.38h20.84c2.75-6.37,5.29-14.53,6.91-21.06,.65-2.65,1.08-4.97,1.24-6.7,4.43,1.3,6.64,2.27,6.64,2.97s-.54,.97-2.21,1.19c-4.1,10.85-6.91,16.9-11.07,23.6h13.82Zm-2.48-32.13c2.54-2.97,3.02-3.19,3.35-3.19s.76,.22,3.24,2.38c1.19,.97,1.46,1.35,1.46,1.67s-.22,.49-.76,.49h-38.02c-1.35,0-2.32,.11-3.78,.32l-.54-2.05c1.73,.27,2.75,.38,4.27,.38h14.53V5.78c0-1.46,0-2.59-.27-4.43,5.67,.54,6.32,1.03,6.32,1.57,0,.49-.43,.86-1.89,1.51v7.99h12.1Zm-23.87,22.95c-.32-6.37-1.46-11.23-3.94-17.28-.11-.27,.43-.54,.59-.32,5.08,5.72,8.15,12.85,8.15,17.66,0,2.48-1.24,3.89-2.7,3.89-1.35,0-1.94-.97-2.11-3.94Z"/><path class="cls-1" d="M290.47,9.13c.05,2.92,.11,4.54,.11,5.13,0,1.13-.76,1.62-2.43,1.62-1.24,0-1.73-.49-1.73-1.4,0-.59,.05-2.05,.11-5.35h-10.26c0,2.97,.05,4.59,.05,5.18,0,1.08-.76,1.67-2.38,1.67-1.19,0-1.73-.49-1.73-1.4,0-.59,.16-2.11,.22-5.45h-10.31c-1.24,0-2.21,.05-3.67,.32l-.54-2.05c1.67,.27,2.81,.38,4.27,.38h10.26v-1.3c0-2.86-.05-3.73-.27-5.62,5.35,.65,5.94,.81,5.94,1.51,0,.38-.32,.81-1.84,1.3V7.78h10.26v-1.24c0-3.02,0-3.67-.22-5.62,5.08,.65,5.78,.81,5.78,1.57,0,.38-.32,.7-1.62,1.19V7.78h8.26c2.48-2.86,2.86-3.13,3.19-3.13,.38,0,.76,.27,3.24,2.38,1.13,.92,1.4,1.24,1.4,1.57s-.22,.54-.7,.54h-15.39Zm-10.69,21.11c-2.32,4.81-5.13,9.4-8.59,13.45,7.72-.22,15.39-.7,23.11-1.51-1.73-2.81-4-5.24-6.7-7.24-.22-.16,.11-.65,.38-.54,7.88,3.19,13.01,8.1,13.01,11.77,0,1.51-.81,2.59-2.05,2.59s-1.94-.7-3.24-3.78c-.27-.59-.49-1.13-.81-1.67-9.02,2.16-19.39,3.62-30.94,4.59-.43,1.35-.7,1.62-1.13,1.62-.7,0-1.08-.92-1.94-5.94,2.59,.16,4,.22,8.59,.16,2.32-4.21,3.94-8.8,5.02-13.5h-12.31c-1.24,0-2.21,.05-3.67,.32l-.54-2.05c1.67,.27,2.81,.38,4.27,.38h36.34c2.54-2.92,2.92-3.19,3.24-3.19,.38,0,.76,.27,3.24,2.38,1.13,.92,1.4,1.3,1.4,1.62s-.16,.54-.7,.54h-25.97Zm-15.88-10.91c1.67,.32,2.81,.43,4.21,.43h24.89c2.32-2.7,2.75-3.02,3.08-3.02s.76,.32,3.19,2.27c1.03,.92,1.3,1.3,1.3,1.62s-.16,.49-.7,.49h-31.81c-1.19,0-2.16,.11-3.62,.32l-.54-2.11Z"/><path class="cls-1" d="M331.02,48.17c0,1.19-.7,1.84-2.27,1.84-1.03,0-1.73-.49-1.73-1.67,0-1.08,.27-4.97,.32-15.82,0-2.27,.05-4.59,.05-6.86-1.89,1.94-3.94,3.67-6.1,5.13-.27,.16-.76-.38-.54-.59,3.51-3.62,6.91-8.64,9.07-12.96,.86-1.84,1.51-3.56,1.89-5.08,4,1.67,4.91,2.27,4.91,2.81s-.43,.76-2,.92c-1.35,2.43-2.92,4.75-4.7,6.91,2.21,.38,2.59,.65,2.59,1.13,0,.43-.22,.7-1.51,1.24v23Zm-9.5-33.05c3.19-2.81,6.1-6.8,8.1-10.37,.92-1.62,1.57-3.13,1.94-4.54,3.56,1.35,5.4,2.38,5.4,2.97,0,.54-.59,.81-2.43,.86-3.51,5.08-7.45,8.91-12.53,11.72-.27,.16-.76-.43-.49-.65Zm12.15,27.27c2.21-5.83,3.89-14.85,3.89-20.41,0-.49,0-.97-.05-1.73,4.37,.81,5.29,1.19,5.29,1.89,0,.49-.27,.65-1.57,1.13-1.35,8.42-3.19,14.26-6.75,19.49-.22,.32-.92,0-.81-.38Zm14.47-24.14c0,20.3,.27,27.38,.27,29.7,0,1.3-.86,1.94-2.48,1.94-1.24,0-1.73-.54-1.73-1.57,0-1.73,.27-7.45,.27-25.38V14.31h-3.94c-1.08,0-1.89,.05-3.24,.27l-.54-2c1.46,.27,2.38,.38,3.73,.38h4c0-7.99-.11-10.53-.38-12.26,5.4,.54,5.83,.7,5.83,1.4,0,.43-.22,.65-1.78,1.4V12.96h3.35c1.67-2.11,2.05-2.38,2.38-2.38,.38,0,.76,.27,2.65,1.78,.81,.76,1.08,1.08,1.08,1.4s-.22,.54-.7,.54h-8.75v3.94Zm4.54-9.94c-.43-1.62-1.46-3.29-2.75-4.59-.16-.16,.16-.49,.38-.43,3.78,1.13,5.51,2.75,5.51,4.54,0,1.13-.76,2.11-1.67,2.11-.81,0-1.08-.32-1.46-1.62Zm.65,26.35c-.16-4.64-1.19-9.34-2.92-14.15-.11-.38,.59-.59,.81-.27,3.56,5.29,5.99,11.56,5.99,16.04,0,2.11-.86,3.4-2.21,3.4-1.24,0-1.57-.86-1.67-5.02Zm5.83-16.15c-1.13,0-1.94,.11-3.35,.32l-.54-2.11c1.57,.38,2.48,.43,3.83,.43h6.59c1.89-2.32,2.27-2.59,2.59-2.59,.38,0,.76,.27,2.7,1.94,.86,.81,1.13,1.19,1.13,1.51s-.16,.49-.7,.49h-5.72v16.09c0,6.43,.11,7.94,.11,10.26,.05,1.78-.59,2.7-1.24,3.35-.76,.81-2.11,1.3-3.62,1.3-.65,0-.81-.22-.97-1.08-.22-1.57-.81-2.11-4.75-3.02-.27-.05-.22-.65,.05-.65,2.7,.27,4.32,.38,5.72,.38,.7,0,.97-.22,.97-.86V18.52h-2.81Zm-1.89-13.77c1.46,.27,2.43,.38,3.67,.38h3.67c1.78-2.27,2.21-2.54,2.59-2.54,.32,0,.76,.27,2.7,1.94,.81,.7,1.08,1.03,1.08,1.35,0,.43-.16,.59-.7,.59h-9.29c-1.03,0-1.84,.11-3.13,.32l-.59-2.05Z"/><path class="cls-1" d="M412.13,17.28c1.84,7.83,4.97,13.55,9.83,18.47,3.83,4,8.86,6.75,13.72,8.59,.27,.11,.16,.49-.11,.59-1.51,.54-2.16,1.3-2.81,3.02-.22,.59-.49,.86-.86,.86-.49,0-1.4-.49-2.86-1.46-3.89-2.48-7.67-6.21-10.15-9.56-3.62-4.81-6.26-11.23-7.67-19.5-1.13,8.37-3.29,13.82-6.91,18.52-4.27,5.56-9.72,9.45-17.98,12.37-.38,.11-.7-.65-.38-.81,8.32-4.37,13.5-9.77,17.12-16.69,1.94-3.73,3.29-8.26,4.05-14.42h-15.34c-1.57,0-2.7,.11-4.48,.32l-.54-2.05c2,.27,3.35,.38,5.08,.38h15.39c.32-3.13,.49-6.7,.49-10.75,0-1.4-.05-2.27-.22-3.94,5.51,.81,6.37,1.13,6.37,1.89,0,.49-.27,.81-1.84,1.46,0,2.11-.05,4.1-.16,5.99-.11,1.89-.22,3.67-.38,5.35h15.28c2.65-3.19,3.02-3.51,3.35-3.51,.38,0,.86,.32,3.56,2.54,1.19,1.03,1.46,1.46,1.46,1.78,0,.38-.16,.54-.7,.54h-22.3Z"/><path class="cls-1" d="M482.98,18.9c1.84-1.67,2.11-1.89,2.43-1.89,.38,0,.65,.22,2.65,1.94,.81,.81,1.03,1.13,1.03,1.46,0,.59-.54,.81-2.38,.97-3.19,2.54-5.45,4-8.48,5.62,.27,.11,.32,.32,.32,.54,0,.49-.32,.81-1.73,1.4v1.94h14.69c2.54-2.97,2.92-3.29,3.24-3.29,.38,0,.76,.32,3.4,2.43,1.24,1.03,1.46,1.35,1.46,1.67s-.16,.54-.7,.54h-22.09v4.32c.05,5.45,.16,6.8,.16,8.53,0,1.62-.65,2.59-1.51,3.4-.86,.81-2.16,1.35-3.83,1.35-.76,0-.92-.16-1.08-1.13-.22-1.57-1.4-2.38-6.21-3.4-.32-.05-.27-.76,.05-.7,3.62,.32,5.89,.49,7.51,.49,.7,0,.97-.27,.97-.92v-11.93h-17.6c-1.19,0-2.16,.05-3.56,.32l-.54-2.05c1.57,.27,2.59,.38,4,.38h17.71c0-2.75,0-3.35-.16-4.97,1.84,.27,3.08,.49,3.94,.65,2.75-2.27,4.43-4.05,6.21-6.32h-17.93c-1.4,0-2.32,.05-3.67,.38l-.59-2.11c1.62,.27,2.54,.38,4.16,.38h18.14Zm-25.06-5.72c0,4.54-1.94,7.34-4.38,7.34-1.24,0-2.21-.97-2.21-2.21,0-.92,.43-1.62,1.67-2.32,2.59-1.46,3.51-3.19,3.89-6.59,0-.22,.54-.22,.59,0,.16,.86,.27,1.67,.32,2.43h24.68c1.4-2,2.7-4.21,3.78-6.37,.76-1.57,1.35-3.08,1.73-4.43,4.27,1.89,5.24,2.59,5.24,3.13,0,.59-.49,.92-2.32,.92-2,2.43-4.48,4.75-6.86,6.75h8.91c1.84-2,2.11-2.21,2.48-2.21s.7,.22,2.86,2.32c1.03,1.03,1.24,1.4,1.24,1.73,0,.81-.38,1.03-2.11,1.08-.65,.05-.81,.16-1.19,.54-1.08,1.19-2.65,2.43-4.43,3.56-.22,.16-.59-.16-.49-.38,.86-1.67,1.51-3.24,2-5.29h-35.42Zm4.86-5.02c-.65-2.32-1.62-4.43-2.92-5.89-.16-.16,.11-.54,.32-.49,4.43,1.51,6.91,4,6.91,6.53,0,1.35-.92,2.43-2.21,2.43-1.13,0-1.62-.54-2.11-2.59Zm11.39-.65c-.49-2.32-1.62-4.64-3.08-6.32-.16-.22,.11-.59,.38-.49,4.43,1.67,6.97,4.27,6.97,6.86,0,1.46-.97,2.48-2.32,2.48-1.19,0-1.57-.43-1.94-2.54Z"/><path class="cls-1" d="M556.15,20.14c2.54-2.86,2.92-3.13,3.24-3.13,.38,0,.76,.27,3.29,2.32,1.13,.92,1.35,1.3,1.35,1.62,0,.38-.16,.54-.7,.54h-42.77c-1.57,0-2.75,.11-4.48,.32l-.54-2.05c2,.27,3.29,.38,5.02,.38h22.52c1.03-2.05,1.89-3.89,2.59-5.83,.65-1.78,1.08-3.4,1.3-4.97,4.43,1.4,5.78,2.05,5.78,2.81,0,.59-.65,.92-2.38,1.08-2,2.97-3.4,4.7-5.56,6.91h11.34Zm-2.21-12.96c2.16-2.7,2.59-2.97,2.92-2.97,.38,0,.76,.27,3.08,2.27,1.08,.86,1.35,1.24,1.35,1.57s-.22,.49-.7,.49h-37.21c-1.4,0-2.48,.11-4.16,.32l-.54-2.11c1.89,.32,3.13,.43,4.7,.43h13.55V4c0-1.08-.11-2.38-.27-4,5.56,.65,6.16,1.08,6.16,1.73,0,.43-.38,.81-1.84,1.4V7.18h12.96Zm-25.87,41.09c0,1.24-.76,1.78-2.43,1.78-1.24,0-1.73-.38-1.73-1.57,0-1.46,.27-4,.27-12.58,0-4.91-.05-7.51-.32-10.58,2.05,.81,2.86,1.19,4.81,2.27h21.22c1.84-1.89,2.11-2.11,2.43-2.11,.38,0,.76,.11,2.59,1.67,.92,.76,1.03,1.08,1.03,1.4,0,.49-.22,.76-1.51,1.57v4.48c0,8.1,.27,12.2,.27,13.39s-.81,1.84-2.43,1.84c-1.24,0-1.84-.43-1.84-1.46v-1.89h-22.36v1.78Zm1.78-31.59c-.38-2.59-1.3-4.86-2.43-6.48-.16-.22,.16-.59,.43-.49,3.78,1.78,6.21,4.54,6.21,6.91,0,1.57-.97,2.75-2.21,2.75s-1.67-.59-2-2.7Zm20.57,12.26h-22.36v7.02h22.36v-7.02Zm-22.36,16.2h22.36v-7.83h-22.36v7.83Z"/><path class="cls-1" d="M606.15,32.89c2.81,2.81,6.05,4.97,9.72,6.64,3.83,1.73,8.32,2.81,13.45,3.35,.22,0,.16,.49-.05,.54-1.84,.65-2.16,.97-3.08,3.24-.16,.43-.54,.65-.92,.65s-1.03-.22-2-.54c-2.54-.92-5.78-2.38-8.21-4-3.67-2.38-6.37-4.91-9.83-9.29,.27,8.64,.49,13.18,.49,14.63,0,1.19-.81,1.73-2.54,1.73-1.03,0-1.67-.43-1.67-1.46,0-1.08,.22-5.56,.38-13.01-6.26,6.26-13.45,10.1-22.14,12.42-.32,.11-.54-.65-.27-.76,7.88-3.56,14.58-8.21,19.44-14.15h-13.99c-1.3,0-2.38,.11-3.89,.38l-.54-2.11c1.62,.32,2.86,.38,4.32,.38h16.9v-.81c0-2.54-.05-3.46-.27-5.08,4.91,.43,5.72,.81,5.72,1.46,0,.43-.38,.81-1.73,1.3v3.13h14.53c2.54-2.81,2.92-3.02,3.24-3.02,.38,0,.76,.22,3.24,2.27,1.08,.92,1.35,1.3,1.35,1.62s-.16,.49-.7,.49h-20.95Zm-25.81-10.26c1.13-.22,2.21-.54,3.24-.86,3.08-1.03,6.7-2.54,10.42-4.48,.22-.11,.49,.49,.27,.65-3.02,2.86-6.05,5.18-10.26,7.78-.05,1.57-.32,2.11-.86,2.11-.43,0-1.03-.97-2.81-5.18Zm7.07-10.85c-1.24-2.48-2.81-4.48-5.78-6.75-.27-.22,.05-.81,.38-.7,6.16,1.78,9.67,4.64,9.67,7.45,0,1.3-.92,2.38-2.05,2.38-.86,0-1.24-.32-2.21-2.38Zm11.45,13.5c0,1.08-.7,1.62-2.27,1.62-1.08,0-1.57-.43-1.57-1.3,0-1.35,.22-3.62,.22-11.5,0-4.21-.05-6.26-.27-8.91,1.84,.81,2.59,1.19,4.27,2.11h2.21c.32-1.46,.49-2.65,.65-3.83,.16-1.08,.22-2.11,.16-3.19,5.08,1.19,5.56,1.51,5.56,2.16,0,.49-.43,.81-1.94,1.08-.86,1.3-1.73,2.59-2.81,3.78h5.72c1.46-1.62,1.73-1.78,2.11-1.78,.32,0,.65,.16,2.21,1.51,.76,.76,.92,1.03,.92,1.35,0,.38-.16,.59-1.35,1.35v3.83c0,6.97,.11,10.37,.11,11.39,0,1.08-.76,1.51-2.11,1.51-1.13,0-1.62-.38-1.62-1.24v-1.13h-10.21v1.19Zm10.21-16.63h-10.21v6.21h10.21v-6.21Zm-10.21,14.09h10.21v-6.53h-10.21v6.53Zm15.44-8.75c2.48-2.05,4.43-4.37,6.21-6.75,1.08-1.51,1.89-2.81,2.38-4,3.78,2.48,4.54,3.24,4.54,3.73s-.49,.76-2.21,.54c-3.4,3.08-6.16,4.97-10.48,7.18-.32,.16-.7-.49-.43-.7Zm7.72,9.61c-1.78-2.54-4.54-4.81-7.61-6.43-.22-.11-.05-.7,.22-.65,8.1,1.78,12.15,4.37,12.15,7.4,0,1.13-.7,2.16-1.94,2.16-.81,0-1.46-.54-2.81-2.48Z"/><path class="cls-1" d="M676.24,18.9c1.84-1.67,2.11-1.89,2.43-1.89,.38,0,.65,.22,2.65,1.94,.81,.81,1.03,1.13,1.03,1.46,0,.59-.54,.81-2.38,.97-3.19,2.54-5.45,4-8.48,5.62,.27,.11,.32,.32,.32,.54,0,.49-.32,.81-1.73,1.4v1.94h14.69c2.54-2.97,2.92-3.29,3.24-3.29,.38,0,.76,.32,3.4,2.43,1.24,1.03,1.46,1.35,1.46,1.67s-.16,.54-.7,.54h-22.09v4.32c.05,5.45,.16,6.8,.16,8.53,0,1.62-.65,2.59-1.51,3.4-.86,.81-2.16,1.35-3.83,1.35-.76,0-.92-.16-1.08-1.13-.22-1.57-1.4-2.38-6.21-3.4-.32-.05-.27-.76,.05-.7,3.62,.32,5.89,.49,7.51,.49,.7,0,.97-.27,.97-.92v-11.93h-17.6c-1.19,0-2.16,.05-3.56,.32l-.54-2.05c1.57,.27,2.59,.38,4,.38h17.71c0-2.75,0-3.35-.16-4.97,1.84,.27,3.08,.49,3.94,.65,2.75-2.27,4.43-4.05,6.21-6.32h-17.93c-1.4,0-2.32,.05-3.67,.38l-.59-2.11c1.62,.27,2.54,.38,4.16,.38h18.14Zm-25.06-5.72c0,4.54-1.94,7.34-4.38,7.34-1.24,0-2.21-.97-2.21-2.21,0-.92,.43-1.62,1.67-2.32,2.59-1.46,3.51-3.19,3.89-6.59,0-.22,.54-.22,.59,0,.16,.86,.27,1.67,.32,2.43h24.68c1.4-2,2.7-4.21,3.78-6.37,.76-1.57,1.35-3.08,1.73-4.43,4.27,1.89,5.24,2.59,5.24,3.13,0,.59-.49,.92-2.32,.92-2,2.43-4.48,4.75-6.86,6.75h8.91c1.84-2,2.11-2.21,2.48-2.21s.7,.22,2.86,2.32c1.03,1.03,1.24,1.4,1.24,1.73,0,.81-.38,1.03-2.11,1.08-.65,.05-.81,.16-1.19,.54-1.08,1.19-2.65,2.43-4.43,3.56-.22,.16-.59-.16-.49-.38,.86-1.67,1.51-3.24,2-5.29h-35.42Zm4.86-5.02c-.65-2.32-1.62-4.43-2.92-5.89-.16-.16,.11-.54,.32-.49,4.43,1.51,6.91,4,6.91,6.53,0,1.35-.92,2.43-2.21,2.43-1.13,0-1.62-.54-2.11-2.59Zm11.39-.65c-.49-2.32-1.62-4.64-3.08-6.32-.16-.22,.11-.59,.38-.49,4.43,1.67,6.97,4.27,6.97,6.86,0,1.46-.97,2.48-2.32,2.48-1.19,0-1.57-.43-1.94-2.54Z"/><path class="cls-1" d="M731.27,22.46c2.21-2.7,2.59-2.97,2.92-2.97,.38,0,.76,.27,3.02,2.21,1.08,.92,1.35,1.3,1.35,1.62s-.22,.49-.81,.49h-25.38c-1.19,0-2.16,.11-3.62,.32l-.54-2.11c1.67,.38,2.75,.43,4.16,.43h12.1c1.24-2.65,2.27-5.18,3.08-7.67,.49-1.51,.76-2.86,.86-3.94,4.43,1.4,5.45,2,5.45,2.54s-.38,.81-2,.97c-1.89,3.02-4.1,5.89-6.05,8.1h5.45Zm-.76-14.47c2.05-2.48,2.54-2.75,2.86-2.75s.76,.27,2.97,2.16c.97,.81,1.24,1.13,1.24,1.46s-.22,.49-.76,.49h-23.71c-1.08,0-1.89,.11-3.24,.32l-.59-2.11c1.51,.32,2.54,.43,3.83,.43h7.83v-3.73c0-1.13-.11-2.32-.27-3.56,5.24,.54,5.83,.92,5.83,1.51,0,.43-.32,.81-1.73,1.46V7.99h5.72Zm-14.26,39.2c0,1.13-.76,1.67-2.21,1.67-1.24,0-1.73-.43-1.73-1.4s.22-2.81,.22-9.02c0-4.81-.05-7.78-.27-11.18,1.89,.81,2.65,1.19,4.54,2.21h11.93c1.62-1.89,1.89-2.11,2.21-2.11,.38,0,.7,.22,2.48,1.62,.86,.65,1.08,1.03,1.08,1.35,0,.43-.22,.7-1.46,1.62v3.62c0,6.7,.16,9.94,.16,10.91,0,1.13-.86,1.67-2.38,1.67-1.19,0-1.62-.49-1.62-1.4v-2h-12.96v2.43Zm.05-28.46c-.22-2.81-.92-4.81-2.43-7.13-.16-.22,.27-.54,.49-.38,3.83,2.32,5.89,4.91,5.89,7.13,0,1.46-1.03,2.59-2.21,2.59-1.03,0-1.51-.59-1.73-2.21Zm12.91,12.1h-12.96v12.58h12.96v-12.58Zm13.88,5.45c0,7.88,.11,10.42,.11,11.56,0,1.24-.81,1.78-2.32,1.78-1.3,0-1.62-.59-1.62-1.51,0-3.56,.16-12.15,.16-27.22,0-13.18-.05-16.79-.27-19.28,1.84,.7,2.81,1.19,4.43,2.16h8.26c1.62-1.78,1.94-2,2.27-2,.38,0,.81,.27,2.54,1.94,.81,.86,1.08,1.24,1.08,1.57,0,.49-.38,.76-1.73,1.08-3.08,5.89-4.64,8.69-8.42,14.04,6.43,4.43,9.07,8.75,9.07,14.36,0,2.43-.65,4.1-1.84,5.29s-2.7,1.73-4.16,1.73c-.59,0-.86-.27-1.08-1.13-.32-1.3-1.13-2.05-4.64-2.86-.27-.05-.27-.7,0-.7,2.43,.22,4.32,.27,5.51,.27,.76,0,1.3-.22,1.67-.65,.54-.54,.7-1.67,.7-3.56,0-4.54-1.94-8.48-6.48-12.53,2.38-5.4,4.1-10.21,5.56-15.5h-8.8v31.16Z"/></g><g><path class="cls-1" d="M108.22,116.66c6.49-7.31,7.45-8,8.28-8,.97,0,1.93,.69,8.42,5.93,2.9,2.35,3.45,3.31,3.45,4.14,0,.97-.41,1.38-1.79,1.38H17.28c-4,0-7.04,.28-11.45,.83l-1.38-5.24c5.11,.69,8.42,.97,12.83,.97h57.55c2.62-5.24,4.83-9.94,6.62-14.9,1.66-4.55,2.76-8.69,3.31-12.7,11.32,3.59,14.77,5.24,14.77,7.18,0,1.52-1.66,2.35-6.07,2.76-5.11,7.59-8.69,12.01-14.21,17.66h28.98Zm-5.66-33.12c5.52-6.9,6.62-7.59,7.45-7.59,.97,0,1.93,.69,7.87,5.8,2.76,2.21,3.45,3.17,3.45,4s-.55,1.24-1.79,1.24H24.45c-3.59,0-6.35,.28-10.63,.83l-1.38-5.38c4.83,.83,8,1.1,12.01,1.1H59.09v-8.14c0-2.76-.28-6.07-.69-10.21,14.21,1.66,15.73,2.76,15.73,4.42,0,1.1-.97,2.07-4.69,3.59v10.35h33.12ZM36.46,188.56c0,3.17-1.93,4.55-6.21,4.55-3.17,0-4.42-.97-4.42-4,0-3.73,.69-10.21,.69-32.15,0-12.56-.14-19.18-.83-27.05,5.24,2.07,7.31,3.04,12.28,5.8h54.23c4.69-4.83,5.38-5.38,6.21-5.38,.97,0,1.93,.28,6.62,4.28,2.35,1.93,2.62,2.76,2.62,3.59,0,1.24-.55,1.93-3.86,4v11.45c0,20.7,.69,31.19,.69,34.22s-2.07,4.69-6.21,4.69c-3.17,0-4.69-1.1-4.69-3.72v-4.83H36.46v4.55Zm4.55-80.73c-.97-6.62-3.31-12.42-6.21-16.56-.41-.55,.41-1.52,1.1-1.24,9.66,4.55,15.87,11.59,15.87,17.66,0,4-2.48,7.04-5.66,7.04s-4.28-1.52-5.11-6.9Zm52.58,31.33H36.46v17.94h57.13v-17.94Zm-57.13,41.4h57.13v-20.01H36.46v20.01Z"/><path class="cls-1" d="M227.45,149.23c7.18,7.18,15.46,12.7,24.84,16.97,9.8,4.42,21.25,7.18,34.36,8.56,.55,0,.41,1.24-.14,1.38-4.69,1.66-5.52,2.48-7.87,8.28-.41,1.1-1.38,1.65-2.35,1.65s-2.62-.55-5.11-1.38c-6.49-2.35-14.77-6.07-20.98-10.21-9.38-6.07-16.28-12.56-25.12-23.74,.69,22.08,1.24,33.67,1.24,37.4,0,3.04-2.07,4.42-6.49,4.42-2.62,0-4.28-1.1-4.28-3.72,0-2.76,.55-14.21,.97-33.26-16.01,16.01-34.36,25.81-56.58,31.74-.83,.28-1.38-1.66-.69-1.93,20.15-9.11,37.26-20.98,49.68-36.16h-35.74c-3.31,0-6.07,.28-9.94,.97l-1.38-5.38c4.14,.83,7.31,.97,11.04,.97h43.19v-2.07c0-6.49-.14-8.83-.69-12.97,12.56,1.11,14.63,2.07,14.63,3.73,0,1.1-.97,2.07-4.42,3.31v8h37.12c6.49-7.18,7.45-7.73,8.28-7.73,.97,0,1.93,.55,8.28,5.8,2.76,2.35,3.45,3.31,3.45,4.14s-.41,1.24-1.79,1.24h-53.54Zm-65.96-26.22c2.9-.55,5.66-1.38,8.28-2.21,7.87-2.62,17.11-6.49,26.63-11.45,.55-.28,1.24,1.24,.69,1.66-7.73,7.31-15.46,13.25-26.22,19.87-.14,4-.83,5.38-2.21,5.38-1.1,0-2.62-2.48-7.18-13.25Zm18.08-27.74c-3.17-6.35-7.18-11.45-14.77-17.25-.69-.55,.14-2.07,.97-1.79,15.73,4.55,24.7,11.87,24.7,19.04,0,3.31-2.35,6.07-5.24,6.07-2.21,0-3.17-.83-5.66-6.07Zm29.26,34.5c0,2.76-1.79,4.14-5.8,4.14-2.76,0-4-1.1-4-3.31,0-3.45,.55-9.25,.55-29.4,0-10.76-.14-16.01-.69-22.77,4.69,2.07,6.62,3.04,10.9,5.38h5.66c.83-3.73,1.24-6.76,1.66-9.8,.41-2.76,.55-5.38,.41-8.14,12.97,3.04,14.21,3.86,14.21,5.52,0,1.24-1.1,2.07-4.97,2.76-2.21,3.31-4.42,6.62-7.18,9.66h14.63c3.73-4.14,4.42-4.55,5.38-4.55,.83,0,1.66,.41,5.66,3.86,1.93,1.93,2.35,2.62,2.35,3.45,0,.97-.41,1.52-3.45,3.45v9.8c0,17.8,.28,26.5,.28,29.12,0,2.76-1.93,3.86-5.38,3.86-2.9,0-4.14-.96-4.14-3.17v-2.9h-26.08v3.04Zm26.08-42.5h-26.08v15.87h26.08v-15.87Zm-26.08,36.02h26.08v-16.7h-26.08v16.7Zm39.47-22.36c6.35-5.24,11.32-11.18,15.87-17.25,2.76-3.86,4.83-7.18,6.07-10.21,9.66,6.35,11.59,8.28,11.59,9.52s-1.24,1.93-5.66,1.38c-8.69,7.87-15.73,12.7-26.77,18.35-.83,.41-1.79-1.24-1.1-1.79Zm19.73,24.56c-4.55-6.49-11.59-12.28-19.46-16.42-.55-.28-.14-1.79,.55-1.66,20.7,4.55,31.05,11.18,31.05,18.91,0,2.9-1.79,5.52-4.97,5.52-2.07,0-3.73-1.38-7.18-6.35Z"/><path class="cls-1" d="M398.02,113.49c4.69-4.28,5.38-4.83,6.21-4.83,.97,0,1.66,.55,6.76,4.97,2.07,2.07,2.62,2.9,2.62,3.73,0,1.52-1.38,2.07-6.07,2.48-8.14,6.49-13.94,10.21-21.67,14.35,.69,.28,.83,.83,.83,1.38,0,1.24-.83,2.07-4.42,3.59v4.97h37.54c6.49-7.59,7.45-8.42,8.28-8.42,.97,0,1.93,.83,8.69,6.21,3.17,2.62,3.73,3.45,3.73,4.28s-.41,1.38-1.79,1.38h-56.44v11.04c.14,13.94,.41,17.39,.41,21.8,0,4.14-1.66,6.62-3.86,8.69s-5.52,3.45-9.8,3.45c-1.93,0-2.35-.41-2.76-2.9-.55-4-3.59-6.07-15.87-8.69-.83-.14-.69-1.93,.14-1.79,9.25,.83,15.04,1.24,19.18,1.24,1.79,0,2.48-.69,2.48-2.35v-30.5h-44.99c-3.04,0-5.52,.14-9.11,.83l-1.38-5.24c4,.69,6.62,.97,10.21,.97h45.26c0-7.04,0-8.56-.41-12.7,4.69,.69,7.87,1.24,10.07,1.65,7.04-5.79,11.32-10.35,15.87-16.14h-45.82c-3.59,0-5.93,.14-9.38,.96l-1.52-5.38c4.14,.69,6.49,.97,10.63,.97h46.37Zm-64.03-14.63c0,11.59-4.97,18.77-11.18,18.77-3.17,0-5.66-2.48-5.66-5.66,0-2.35,1.1-4.14,4.28-5.93,6.62-3.73,8.97-8.14,9.94-16.84,0-.55,1.38-.55,1.52,0,.41,2.21,.69,4.28,.83,6.21h63.07c3.59-5.11,6.9-10.76,9.66-16.28,1.93-4,3.45-7.87,4.42-11.32,10.9,4.83,13.39,6.62,13.39,8,0,1.52-1.24,2.35-5.93,2.35-5.11,6.21-11.45,12.14-17.53,17.25h22.77c4.69-5.11,5.38-5.66,6.35-5.66s1.79,.55,7.31,5.93c2.62,2.62,3.17,3.59,3.17,4.42,0,2.07-.97,2.62-5.38,2.76-1.66,.14-2.07,.41-3.04,1.38-2.76,3.04-6.76,6.21-11.32,9.11-.55,.41-1.52-.41-1.24-.97,2.21-4.28,3.86-8.28,5.11-13.52h-90.53Zm12.42-12.83c-1.66-5.93-4.14-11.32-7.45-15.04-.41-.41,.28-1.38,.83-1.24,11.32,3.86,17.66,10.21,17.66,16.7,0,3.45-2.35,6.21-5.66,6.21-2.9,0-4.14-1.38-5.38-6.62Zm29.12-1.66c-1.24-5.93-4.14-11.87-7.87-16.15-.41-.55,.28-1.52,.97-1.24,11.32,4.28,17.8,10.9,17.8,17.53,0,3.73-2.48,6.35-5.93,6.35-3.04,0-4-1.1-4.97-6.49Z"/><path class="cls-1" d="M562.38,163.58c0,11.46,.14,15.18,.14,18.22,0,3.59-1.38,6.21-3.45,7.87-2.21,2.07-5.66,3.31-10.21,3.31-1.38,0-1.66-.41-2.07-3.31-.69-3.04-3.86-5.38-14.77-7.59-.83-.14-.69-1.93,.14-1.79,7.18,.83,13.39,1.24,18.08,1.24,1.66,0,2.35-.55,2.35-2.21v-22.63h-69.97c-3.04,0-5.11,.28-8.28,.83l-1.38-5.24c3.86,.83,6.21,.96,9.8,.96h69.83c0-5.24,0-7.04-.55-10.62,13.11,1.66,14.21,2.07,14.21,3.86,0,1.1-.69,1.79-3.86,2.9v3.86h14.77c5.93-6.76,6.9-7.31,7.73-7.31,.97,0,2.07,.55,8.28,5.52,2.76,2.21,3.45,3.17,3.45,4s-.55,1.24-1.93,1.24h-32.29v6.9Zm-34.09-78.38h-41.26c-3.73,0-6.49,.14-10.9,.69l-1.38-5.24c4.83,.83,7.87,1.1,11.87,1.1h41.68c0-7.04-.14-11.04-.83-16.01,13.52,1.52,15.04,2.62,15.04,4.14,0,1.24-.83,2.21-4.55,3.86v8h36.85c5.93-7.04,7.04-7.73,7.87-7.73s1.93,.69,8.28,5.52c3.17,2.62,3.86,3.45,3.86,4.28,0,.97-.55,1.38-1.79,1.38h-55.06v12.83h28.29c4.28-4.69,4.97-5.24,5.8-5.24,.97,0,1.79,.55,6.35,4.28,2.21,1.93,2.76,2.76,2.76,3.59,0,1.1-.41,1.66-4,4.14v8.83c0,16.28,.55,23.87,.55,26.22,0,3.04-1.93,4.42-6.35,4.42-2.76,0-3.86-.97-3.86-3.31v-1.1h-66.93v1.38c0,3.17-1.93,4.42-6.21,4.42-3.04,0-4.14-.96-4.14-3.59,0-3.59,.69-9.38,.69-29.67,0-9.38-.14-13.94-.83-20.15,4.97,2.07,7.18,3.17,11.87,5.8h26.36v-12.83Zm-27.74,16.28v15.18h27.74v-15.18h-27.74Zm27.74,18.63h-27.74v16.28h27.74v-16.28Zm-16.01,56.03c-1.79-5.38-4.83-9.66-9.52-13.8-.41-.41,.28-1.24,.83-1.11,12.28,3.04,19.46,9.11,19.46,15.32,0,4.14-2.35,6.49-5.52,6.49-2.9,0-3.73-.97-5.24-6.9Zm25.67-59.48h29.53v-15.18h-29.53v15.18Zm29.53,19.73v-16.28h-29.53v16.28h29.53Z"/><path class="cls-1" d="M646.7,89.61h-8.28c-3.17,0-5.66,.28-9.11,.83l-1.38-5.24c4.14,.83,6.76,.97,10.49,.97h24.84c5.38-6.62,6.35-7.31,7.18-7.31,.97,0,1.93,.69,7.59,5.52,2.62,2.21,3.31,3.04,3.31,4,0,.83-.55,1.24-1.79,1.24h-22.77v59.75c7.45-2.35,15.04-4.97,22.22-7.87,.83-.28,1.52,1.24,.83,1.66-12.7,8.7-25.67,15.04-44.57,22.36-.55,4-1.24,5.24-2.76,5.24s-2.35-1.79-6.49-14.63c3.73-.28,7.31-.83,10.9-1.66,3.17-.69,6.49-1.38,9.8-2.35v-62.51Zm88.32,12.97c-1.38,7.04-2.9,13.94-5.24,20.7-3.73,11.87-9.25,22.91-16.97,32.57,.83,.83,1.79,1.66,2.62,2.48,11.59,10.62,25.39,17.11,40.85,21.25,.69,.14,.41,1.38-.28,1.52-4.14,1.24-5.38,1.93-7.31,7.31-.55,1.38-1.1,1.79-2.07,1.79-1.24,0-3.45-.55-8.56-3.17-9.8-5.11-22.36-15.18-30.64-24.98-13.25,13.66-31.74,23.32-56.03,30.22-.97,.28-1.79-1.52-.97-1.93,22.36-9.66,39.47-20.98,51.47-35.47-7.87-11.59-12.97-24.98-16.01-38.5-5.11,7.45-10.9,13.8-17.39,18.91-.55,.41-1.79-.55-1.38-1.1,9.25-11.18,18.63-31.46,24.01-49.4,2.21-7.04,3.45-13.39,3.86-18.91,12.42,3.31,15.32,4.55,15.32,6.49,0,1.66-1.24,2.35-5.52,3.17-2.76,8.69-5.8,16.56-9.11,23.6h39.47c6.21-7.45,7.18-8.14,8-8.14,.97,0,2.07,.69,8.42,6.07,2.9,2.35,3.59,3.31,3.59,4.14s-.55,1.38-1.93,1.38h-18.22Zm-40.99,0c-1.79,3.45-3.73,6.76-5.66,10.07,3.31,13.11,9.25,25.94,17.94,36.16,9.52-13.94,14.77-29.81,17.8-46.23h-30.08Z"/></g></svg>